<svg width="62" height="80" viewBox="0 0 62 80" fill="none" xmlns="http://www.w3.org/2000/svg">
<path d="M58.9774 49.9884C58.4926 45.5534 56.3353 41.6787 53.2063 39.6229L41.6506 32.0318C44.1362 29.0276 45.6652 24.9794 45.6652 20.5282C45.6652 20.2109 45.6553 19.8941 45.6395 19.5776H59.4679C60.829 19.5776 61.9327 18.3165 61.9327 16.7607C61.9327 15.2048 60.8292 13.9437 59.4679 13.9437H48.5554C45.8547 5.65172 38.8438 0 30.9996 0C23.1553 0 16.1445 5.65172 13.4437 13.9437H2.53125C1.17014 13.9437 0.0664062 15.2048 0.0664062 16.7607C0.0664062 18.3165 1.16991 19.5776 2.53125 19.5776H16.3597C16.3439 19.8941 16.334 20.2112 16.334 20.5282C16.334 24.9794 17.8629 29.0276 20.3485 32.0318L8.79284 39.6229C5.66429 41.6781 3.50678 45.5531 3.02149 49.9884L0.0854975 76.8337C-0.00217931 77.6353 0.215834 78.4415 0.683443 79.0473C1.15129 79.6531 1.82442 80 2.53125 80H59.4679C60.1747 80 60.8479 79.6531 61.3157 79.0473C61.7836 78.4415 62.0013 77.6353 61.9136 76.8337L58.9774 49.9884ZM17.1968 52.1126H44.8025V74.3661H17.1968V52.1126ZM21.2637 46.4789V37.9289L24.7092 35.6655C26.6167 36.7049 28.7494 37.2886 30.9998 37.2886C33.2502 37.2886 35.3827 36.7049 37.2904 35.6655L40.7359 37.9289V46.4789H21.2637ZM30.9996 5.63367C36.0075 5.63367 40.5545 8.75986 42.9741 13.5679H19.0251C21.4447 8.75986 25.9916 5.63367 30.9996 5.63367ZM40.6996 19.5774C40.7234 19.8936 40.7355 20.2106 40.7355 20.5279C40.7355 26.6632 36.3679 31.6547 30.9996 31.6547C25.6313 31.6547 21.2637 26.6632 21.2637 20.5279C21.2637 20.2104 21.2757 19.8936 21.2995 19.5774H40.6996V19.5774ZM7.91301 50.6871C8.20738 47.9965 9.45442 45.6862 11.2494 44.5072L16.334 41.1671V46.4789H14.7318C13.3706 46.4789 12.2669 47.7403 12.2669 49.2959V74.3663H5.32348L7.91301 50.6871ZM49.732 74.3663V49.2959C49.732 47.7403 48.6285 46.4789 47.2671 46.4789H45.6649V41.1671L50.7495 44.5072C52.5445 45.6862 53.7915 47.9968 54.0857 50.6871L56.6757 74.3661H49.732V74.3663Z" fill="#8181FF"/>
</svg>
