<svg width="80" height="80" viewBox="0 0 80 80" fill="none" xmlns="http://www.w3.org/2000/svg">
<path d="M56.8371 43.5666H45.9666C42.9916 43.5666 40.5723 46.3375 40.5723 49.7449V59.2932C40.5723 62.7007 42.9916 65.4716 45.9666 65.4716H56.8371C59.8122 65.4716 62.2314 62.7007 62.2314 59.2932V49.7449C62.2314 46.3375 59.8122 43.5666 56.8371 43.5666ZM58.3083 59.2932C58.3083 60.2294 57.6381 60.9782 56.8371 60.9782H45.9666C45.1493 60.9782 44.4954 60.2106 44.4954 59.2932V49.7449C44.4954 48.8088 45.1656 48.0599 45.9666 48.0599H56.8371C57.6544 48.0599 58.3083 48.8275 58.3083 49.7449V59.2932Z" fill="#8181FF"/>
<path d="M80 26.2111C80 25.8179 79.9183 25.4435 79.7385 25.1065L67.8382 1.14206C67.4949 0.449333 66.841 0 66.1381 0H13.8455C13.1426 0 12.4888 0.430611 12.1455 1.14206L0.261545 25.1065C0.0980793 25.4435 0 25.8179 0 26.2111C0 31.5844 2.82795 36.19 6.86555 38.2307V77.7533C6.86555 78.989 7.74826 80 8.82714 80H19.6649C19.6812 80 19.6976 80 19.7139 80H34.9162C34.9326 80 34.9489 80 34.9653 80H71.1565C72.2354 80 73.1181 78.989 73.1181 77.7533V38.5116C73.1181 38.418 73.1181 38.3431 73.1018 38.2682C77.1557 36.2275 80 31.6031 80 26.2111ZM14.9898 4.51205H64.9939L74.2951 23.253H5.70495L14.9898 4.51205ZM56.935 27.7276C56.3139 31.7716 53.2244 34.842 49.5137 34.842C45.803 34.842 42.7135 31.7716 42.0924 27.7276H56.935ZM37.924 27.7276C37.3028 31.7716 34.2133 34.842 30.5027 34.842C26.792 34.842 23.7025 31.7716 23.065 27.7276H37.924ZM4.05394 27.7276H18.913C18.2918 31.7716 15.1859 34.842 11.4753 34.842C7.76461 34.8607 4.67511 31.7716 4.05394 27.7276ZM32.9546 75.5067H21.6755V51.2614C21.6755 49.5015 22.9179 48.0599 24.4708 48.0599H30.1757C31.7123 48.0599 32.971 49.4828 32.971 51.2614V75.5067H32.9546ZM69.1949 75.5067H36.8778V51.2614C36.8778 47.0302 33.87 43.5666 30.1594 43.5666H24.4544C20.7601 43.5666 17.736 47.0115 17.736 51.2614V75.5254H10.7887V39.3354C11.0176 39.3541 11.2464 39.3541 11.4753 39.3541C15.4311 39.3541 18.9293 37.0513 20.989 33.5502C23.0486 37.0513 26.5468 39.3541 30.5027 39.3541C34.4585 39.3541 37.9403 37.0513 40.0163 33.5502C42.076 37.0513 45.5742 39.3541 49.5137 39.3541C53.4696 39.3541 56.9514 37.0513 59.011 33.5502C61.0707 37.0513 64.5689 39.3541 68.5247 39.3541C68.7536 39.3541 68.9661 39.3354 69.1949 39.3354V75.5067ZM68.5247 34.8608C64.8141 34.8608 61.7246 31.7903 61.1034 27.7463H75.9624C75.3249 31.7716 72.2354 34.8608 68.5247 34.8608Z" fill="#8181FF"/>
</svg>
