<svg width="6676" height="1032" viewBox="0 0 6676 1032" fill="none" xmlns="http://www.w3.org/2000/svg">
<g clip-path="url(#clip0_527_6)">
<path d="M3337.75 847.5L3283.86 863.205C3229.97 879.601 3122.68 908.365 3013.91 893.983C2906.38 879.601 2798.85 816.32 2690.07 801.938C2582.54 787.556 2475.01 816.32 2366.24 786.693C2258.95 755.916 2151.17 663.872 2042.4 617.85C1935.36 571.827 1827.33 571.827 1718.56 510.56C1611.77 448.143 1503.49 327.334 1397.19 310.939C1288.18 295.694 1179.65 387.739 1073.35 479.783C964.584 571.827 855.814 663.872 749.516 602.605C640.993 540.187 531.975 327.334 425.677 295.694C317.401 264.054 210.609 419.379 101.838 449.006C-6.19022 479.783 -113.23 387.739 -167.615 341.716L-222 295.694V1032.05H-168.11C-114.219 1032.05 -6.93183 1032.05 101.838 1032.05C209.373 1032.05 316.907 1032.05 425.677 1032.05C533.211 1032.05 640.745 1032.05 749.516 1032.05C856.803 1032.05 964.584 1032.05 1073.35 1032.05C1180.39 1032.05 1288.42 1032.05 1397.19 1032.05C1503.99 1032.05 1612.26 1032.05 1718.56 1032.05C1827.58 1032.05 1936.1 1032.05 2042.4 1032.05C2151.17 1032.05 2259.94 1032.05 2366.24 1032.05C2474.76 1032.05 2583.78 1032.05 2690.07 1032.05C2798.35 1032.05 2905.14 1032.05 3013.91 1032.05C3121.94 1032.05 3228.98 1032.05 3283.37 1032.05H3337.75V847.5Z" fill="#B3B3F4"/>
<path d="M3337.06 847.495L3390.95 862.74C3444.84 879.135 3552.14 907.899 3660.92 893.517C3768.46 879.135 3876 815.855 3984.78 801.473C4092.32 787.091 4199.86 815.855 4308.64 786.228C4415.93 755.451 4523.72 663.406 4632.5 617.384C4739.55 571.362 4847.58 571.362 4956.36 510.095C5063.16 447.677 5171.44 326.869 5277.75 310.474C5386.78 295.229 5495.31 387.273 5601.61 479.318C5710.39 571.362 5819.17 663.406 5925.47 602.139C6034 539.722 6143.03 326.869 6249.33 295.229C6357.62 263.589 6464.42 418.913 6573.19 448.54C6681.23 479.318 6788.28 387.273 6842.67 341.251L6897.06 295.229V1031.58H6843.16C6789.27 1031.58 6681.97 1031.58 6573.19 1031.58C6465.65 1031.58 6358.11 1031.58 6249.33 1031.58C6141.79 1031.58 6034.25 1031.58 5925.47 1031.58C5818.18 1031.58 5710.39 1031.58 5601.61 1031.58C5494.56 1031.58 5386.53 1031.58 5277.75 1031.58C5170.95 1031.58 5062.67 1031.58 4956.36 1031.58C4847.34 1031.58 4738.81 1031.58 4632.5 1031.58C4523.72 1031.58 4414.94 1031.58 4308.64 1031.58C4200.11 1031.58 4091.08 1031.58 3984.78 1031.58C3876.49 1031.58 3769.69 1031.58 3660.92 1031.58C3552.88 1031.58 3445.83 1031.58 3391.44 1031.58H3337.06V847.495Z" fill="#B3B3F4"/>
</g>
<defs>
<clipPath id="clip0_527_6">
<rect width="6676" height="1032" fill="white"/>
</clipPath>
</defs>
</svg>
