<svg width="6156" height="1032" viewBox="0 0 6156 1032" fill="none" xmlns="http://www.w3.org/2000/svg">
<g clip-path="url(#clip0_548_2)">
<path d="M3337.75 847.5L3283.86 863.205C3229.97 879.601 3122.68 908.365 3013.91 893.983C2906.38 879.601 2798.85 816.32 2690.07 801.938C2582.54 787.556 2475.01 816.32 2366.24 786.693C2258.95 755.916 2151.17 663.872 2042.4 617.85C1935.36 571.827 1827.33 571.827 1718.56 510.56C1611.77 448.143 1503.49 327.334 1397.19 310.939C1288.18 295.694 1179.65 387.739 1073.35 479.783C964.584 571.827 855.814 663.872 749.516 602.605C640.993 540.187 531.975 327.334 425.677 295.694C317.401 264.054 210.609 419.379 101.838 449.006C-6.19019 479.783 -113.23 387.739 -167.615 341.716L-222 295.694V1032.05H-168.11C-114.219 1032.05 -6.93188 1032.05 101.838 1032.05C209.373 1032.05 316.906 1032.05 425.677 1032.05C533.211 1032.05 640.745 1032.05 749.516 1032.05C856.802 1032.05 964.584 1032.05 1073.35 1032.05C1180.39 1032.05 1288.42 1032.05 1397.19 1032.05C1503.99 1032.05 1612.26 1032.05 1718.56 1032.05C1827.58 1032.05 1936.1 1032.05 2042.4 1032.05C2151.17 1032.05 2259.94 1032.05 2366.24 1032.05C2474.76 1032.05 2583.78 1032.05 2690.07 1032.05C2798.35 1032.05 2905.14 1032.05 3013.91 1032.05C3121.94 1032.05 3228.98 1032.05 3283.37 1032.05H3337.75V847.5Z" fill="#DEDEFA"/>
<path d="M2818 847.5L2871.89 863.205C2925.78 879.601 3033.07 908.365 3141.84 893.983C3249.37 879.601 3356.91 816.32 3465.68 801.938C3573.21 787.556 3680.75 816.32 3789.52 786.693C3896.8 755.916 4004.58 663.872 4113.35 617.85C4220.39 571.827 4328.42 571.827 4437.19 510.56C4543.99 448.143 4652.26 327.334 4758.56 310.939C4867.58 295.694 4976.1 387.739 5082.4 479.783C5191.17 571.827 5299.94 663.872 5406.24 602.605C5514.76 540.187 5623.78 327.334 5730.08 295.694C5838.35 264.054 5945.14 419.379 6053.91 449.006C6161.94 479.783 6268.98 387.739 6323.37 341.716L6377.75 295.694V1032.05H6323.86C6269.97 1032.05 6162.68 1032.05 6053.91 1032.05C5946.38 1032.05 5838.85 1032.05 5730.08 1032.05C5622.54 1032.05 5515.01 1032.05 5406.24 1032.05C5298.95 1032.05 5191.17 1032.05 5082.4 1032.05C4975.36 1032.05 4867.33 1032.05 4758.56 1032.05C4651.77 1032.05 4543.49 1032.05 4437.19 1032.05C4328.18 1032.05 4219.65 1032.05 4113.35 1032.05C4004.58 1032.05 3895.81 1032.05 3789.52 1032.05C3680.99 1032.05 3571.98 1032.05 3465.68 1032.05C3357.4 1032.05 3250.61 1032.05 3141.84 1032.05C3033.81 1032.05 2926.77 1032.05 2872.39 1032.05H2818V847.5Z" fill="#DEDEFA"/>
</g>
<defs>
<clipPath id="clip0_548_2">
<rect width="6156" height="1032" fill="white"/>
</clipPath>
</defs>
</svg>
